<svg xmlns="http://www.w3.org/2000/svg" viewBox="0 0 1854.34 281.56"><defs><style>.cls-1{fill:#fcff00;}</style></defs><g id="Layer_2" data-name="Layer 2"><g id="Layer_1-2" data-name="Layer 1"><path class="cls-1" d="M245.71,242.46l-4.15,4.16c-9.55,9.54-38.26,34.62-65.6,34.43-7.72-.06-11.28-9.27-5.64-15.05l.12-.12,33.45-33.45a7.7,7.7,0,0,0,0-10.89l-44.72-44.73L159,177l-18.23-18.23-62.95,63a7.72,7.72,0,0,0,0,10.91l33.77,33.77c.31.31.6.64.89,1,5.58,6.71,2.8,13.25-5.43,14-28.64,2.74-58.31-26-67.95-35.66l-4.17-4.16C25.4,232,.31,203.3.52,176c0-7.72,9.25-11.29,15-5.65a.8.8,0,0,0,.13.13l33.43,33.44a7.71,7.71,0,0,0,10.9,0l44.73-44.72-.16-.16,18.23-18.23-62.95-63a7.7,7.7,0,0,0-10.89,0L15.21,111.59a11.58,11.58,0,0,1-1,.89c-6.72,5.58-13.25,2.81-14-5.43-2.72-28.64,26-58.31,35.68-67.95L40,34.93C49.56,25.39,78.27.31,105.61.5c7.71.06,11.29,9.27,5.63,15.06l-.11.11L77.67,49.12a7.71,7.71,0,0,0,0,10.89l44.74,44.73.14-.14,18.23,18.23,63-63a7.7,7.7,0,0,0,0-10.89L170,15.2a11.87,11.87,0,0,1-.9-1C163.51,7.5,166.28,1,174.5.18c28.65-2.74,58.32,26,68,35.66L246.62,40c9.54,9.54,34.64,38.24,34.43,65.59-.05,7.71-9.26,11.29-15,5.63l-.12-.12L232.44,77.66a7.71,7.71,0,0,0-10.89,0L176.82,122.4l.15.16-18.23,18.21,63,63a7.71,7.71,0,0,0,10.9,0L266.36,170a12,12,0,0,1,1-.9c6.71-5.57,13.25-2.81,14,5.43C284.12,203.15,255.36,232.8,245.71,242.46Z"/><path class="cls-1" d="M380.74,118.8H354.19V94.66h26.55V72.42l33.31-21.57V94.66h34.76V118.8H414.05v63.49c0,14.73.73,22.69,12.07,22.69,8.21,0,15.93-.24,23.9-.48v24.14a170.55,170.55,0,0,1-25.59,1.93c-40.55,0-43.69-14.48-43.69-38.62Z"/><path class="cls-1" d="M468.61,94.66h33.3v30h.49c8.93-14.49,22.68-28.24,48.27-28.24a75.64,75.64,0,0,1,13.27,1.2V130.4a64,64,0,0,0-21.24-3.14c-16.89,0-40.79,8.93-40.79,38.62v61.79h-33.3Z"/><path class="cls-1" d="M580.36,94.66h33.31v78c0,19.55,4.59,34.27,33.07,34.27,14.72,0,38.86-9.65,38.86-36.93V94.66h33.31v133H685.6V209.81h-.49c-10.86,13.76-27.75,22.69-50.44,22.69-27.52,0-54.31-9.9-54.31-47.31Z"/><path class="cls-1" d="M756.32,118.8H729.77V94.66h26.55v-22l33.31-21.82V94.66h34.76V118.8H789.63v63.49c0,14.73.72,22.69,12.07,22.69,8.21,0,15.93-.24,23.89-.48v24.14A170.41,170.41,0,0,1,800,230.57c-40.55,0-43.69-14.48-43.69-38.62Z"/><path class="cls-1" d="M844.18,94.66h33.31v30H878c8.93-14.49,22.68-28.24,48.27-28.24a75.64,75.64,0,0,1,13.27,1.2V130.4a64,64,0,0,0-21.24-3.14c-16.89,0-40.79,8.93-40.79,38.62v61.79H844.18Z"/><path class="cls-1" d="M1093.28,198.46c0,7,5.07,7.25,7.24,7.25a77.29,77.29,0,0,0,10.86-.73v23.41c-6.52,1.21-12.31,2.9-23.65,2.9-21.73,0-24.14-11.58-25.11-16.41-6.51,6.27-22.69,17.62-60.1,17.62-33.3,0-52.13-15-52.13-40.07,0-35.24,36.2-38.38,57.44-40.31,47.79-4.58,52.86-6.27,52.86-16.17,0-14.72-16.89-18.34-36.2-18.34-22,0-33.79,7-35,21.24H956.91c4.82-33.55,29.68-43.93,67.58-43.93,66.86,0,68.79,26.31,68.79,43ZM1060,164c-9.66,4.1-20,5.31-43.69,8-25.1,2.9-31.13,8.45-31.13,19.31,0,16.9,15.44,20,26.79,20,17.86,0,48-6.76,48-35Z"/><path class="cls-1" d="M1273.1,227.67h-33.31V210.05h-.48c-2.41,7.72-22.45,22.45-49,22.45-48.75,0-70-35.48-70-68.31,0-32.34,21.24-67.82,70-67.82,20,0,39.1,6.27,49,21.72h.48V82l33.31-29.55Zm-74.82-20.76c31.13,0,43-21,43-42.72,0-21.24-11.83-42.24-43-42.24-31.38,0-43.21,21-43.21,42.24C1155.07,185.91,1166.9,206.91,1198.28,206.91Z"/><path class="cls-1" d="M1330.79,172.16c.73,14.24,10.38,36.2,43.45,36.2,22,0,31.62-7.72,38.13-18.34h36.21c-7.24,14.24-24.62,42.48-73.38,42.48-57.68,0-79.16-33.55-79.16-67.59,0-42.72,31.61-70,77-70,56.72,0,78.44,35,78.44,72.41v4.83Zm85.93-21.24c-4.11-25.59-26.79-33.31-43.21-33.31-15.44,0-37.17,7.24-42.72,33.31Z"/><path class="cls-1" d="M1474.41,94.66h33.31v30h.48c8.93-14.49,22.69-28.24,48.27-28.24a75.85,75.85,0,0,1,13.28,1.2V130.4a64.05,64.05,0,0,0-21.24-3.14c-16.9,0-40.79,8.93-40.79,38.62v61.79h-33.31Z"/><path class="cls-1" d="M1592.88,50.85h106.66V80.11h-72.66v34.81h73v30.77h-73v81.88h-34Z"/><path class="cls-1" d="M1751.65,163l-42.46-48.09h42.87l21,23.45,38.29-43.67h43l-59.4,68,59.37,66.3H1810l-36.67-41.52-36.12,41.52h-42.9Z"/></g></g></svg>