<svg width="22" height="21" viewBox="0 0 22 21" fill="none" xmlns="http://www.w3.org/2000/svg">
<path fill-rule="evenodd" clip-rule="evenodd" d="M10.5511 0C7.40508 0 4.8547 2.55037 4.8547 5.69644C4.8547 8.84248 7.40508 11.3929 10.5511 11.3929C13.6972 11.3929 16.2476 8.84248 16.2476 5.69644C16.2476 2.55037 13.6972 0 10.5511 0ZM10.5511 12.606C7.16572 12.606 4.01625 13.6261 1.39621 15.3759C0.73456 15.8178 0.296891 16.4003 0.10664 17.0557C-0.0823827 17.7069 -0.0109126 18.3746 0.248304 18.9612C0.765147 20.131 2.02184 20.9892 3.5795 20.9892H17.5228C19.0804 20.9892 20.337 20.131 20.8539 18.9612C21.1132 18.3746 21.1845 17.7069 20.9956 17.0557C20.8053 16.4003 20.3677 15.8178 19.706 15.3759C17.0859 13.6261 13.9365 12.606 10.5511 12.606Z" fill="white"/>
</svg>
